# xmcd
#
# Track frame offsets: 
#        150
#        26077
#        40702
#        69264
#        80864
#        93742
#        107497
#        119514
#        134971
#        151966
#        173926
#        199286
#        210141
#        230888
#        255790
#        271240
#        289087
#        305552
#        314850
#        338870
#
# Disc length: 4690 seconds
#
# Revision: 1
# Processed by: cddbd v1.5.2PL0 Copyright (c) Steve Scherf et al.
# Submitted via: ExactAudioCopyFreeDBPlugin 1.0
#
DISCID=2e125014
DTITLE=Oscar Peterson - Gold
DYEAR=2008
DGENRE=Jazz
TTITLE0=Tenderly
TTITLE1=It Ain't Necessarily So
TTITLE2=I Loves You Porgy (I Want To Stay Here)
TTITLE3=Night And Day
TTITLE4=I've Got You Under My Skin
TTITLE5=I Get A Kick Out Of You
TTITLE6=You Make Me Feel So Young
TTITLE7=C-Jam Blues
TTITLE8=Georgia On My Mind
TTITLE9=Night Train
TTITLE10=Hymn To Freedom
TTITLE11=Honey Dripper
TTITLE12=Tonight
TTITLE13=Wheatland
TTITLE14=March Past
TTITLE15=Place St. Henri
TTITLE16=Brotherhood Of Man
TTITLE17=Mumbles
TTITLE18=Mack The Knife
TTITLE19=Quiet Nights Of Quiet Stars (Corcovado)
EXTD=
EXTT0=
EXTT1=
EXTT2=
EXTT3=
EXTT4=
EXTT5=
EXTT6=
EXTT7=
EXTT8=
EXTT9=
EXTT10=
EXTT11=
EXTT12=
EXTT13=
EXTT14=
EXTT15=
EXTT16=
EXTT17=
EXTT18=
EXTT19=
PLAYORDER=
